<?xml version="1.0" standalone="no"?>
<!DOCTYPE svg PUBLIC "-//W3C//DTD SVG 20010904//EN"
 "http://www.w3.org/TR/2001/REC-SVG-20010904/DTD/svg10.dtd">
<svg version="1.0" xmlns="http://www.w3.org/2000/svg"
 width="413.000000pt" height="200.000000pt" viewBox="0 0 413.000000 200.000000"
 preserveAspectRatio="xMidYMid meet">

<g transform="translate(0.000000,200.000000) scale(0.100000,-0.100000)"
fill="#000000" stroke="none">
<path d="M2000 1565 l0 -355 75 0 75 0 0 355 0 355 -75 0 -75 0 0 -355z"/>
<path d="M1730 1514 c-171 -57 -305 -140 -430 -264 -105 -106 -198 -246 -249
-377 l-21 -53 75 0 75 0 34 70 c102 205 253 354 460 451 44 20 109 45 144 55
l62 17 0 69 c0 64 -1 68 -22 68 -13 0 -70 -16 -128 -36z"/>
<path d="M2270 1482 l0 -69 63 -17 c132 -37 288 -124 394 -220 70 -63 159
-183 207 -278 l39 -78 74 0 73 0 -20 50 c-94 240 -270 439 -497 567 -72 40
-272 113 -310 113 -22 0 -23 -4 -23 -68z"/>
<path d="M3384 856 c-35 -15 -44 -32 -44 -80 0 -46 35 -76 87 -76 51 0 82 24
89 71 11 68 -63 116 -132 85z"/>
<path d="M245 823 c-27 -2 -65 -5 -82 -8 l-33 -6 0 -354 0 -355 75 0 75 0 0
130 0 130 75 0 c132 0 234 53 272 140 19 45 19 145 0 190 -18 40 -58 81 -105
104 -32 16 -154 37 -202 34 -14 -1 -47 -3 -75 -5z m179 -127 c45 -19 66 -52
66 -104 0 -59 -46 -107 -112 -117 -93 -14 -93 -14 -96 104 -1 58 0 111 2 118
7 18 97 17 140 -1z"/>
<path d="M1650 798 c0 -13 -9 -158 -20 -323 -11 -165 -20 -319 -20 -343 l0
-43 73 3 72 3 7 170 c12 268 20 397 25 392 2 -3 11 -37 19 -76 12 -57 96 -374
120 -453 4 -15 17 -18 69 -18 l64 0 50 159 c28 87 66 211 83 275 18 63 36 116
39 116 3 0 9 -125 13 -277 4 -153 10 -281 12 -285 3 -4 39 -8 80 -8 64 0 74 2
74 18 0 41 -32 631 -36 670 l-5 43 -107 -3 -106 -3 -43 -135 c-23 -74 -55
-182 -69 -240 -15 -58 -30 -109 -34 -113 -4 -5 -15 27 -24 70 -16 71 -44 175
-97 356 l-20 67 -109 0 c-107 0 -110 -1 -110 -22z"/>
<path d="M3145 755 c-5 -2 -36 -11 -67 -20 l-58 -16 0 -49 0 -50 -35 0 -35 0
0 -60 0 -60 34 0 34 0 4 -147 c5 -168 17 -210 70 -243 44 -27 87 -34 153 -25
l55 6 0 60 0 59 -37 0 c-72 0 -83 25 -83 174 l0 116 60 0 60 0 0 60 0 60 -60
0 -60 0 0 70 c0 69 -4 76 -35 65z"/>
<path d="M912 610 c-18 -11 -42 -37 -54 -57 -19 -31 -23 -34 -29 -17 -4 10 -8
34 -8 52 l-1 32 -65 0 -65 0 0 -260 0 -260 80 0 80 0 0 153 c0 133 2 156 20
184 21 34 84 59 120 48 19 -6 20 -1 20 69 l0 76 -32 0 c-18 0 -48 -9 -66 -20z"/>
<path d="M1215 620 c-131 -34 -195 -121 -196 -267 0 -65 4 -85 28 -132 107
-210 448 -169 503 60 26 109 -12 239 -87 296 -60 46 -166 64 -248 43z m118
-111 c33 -15 55 -57 63 -120 11 -99 -28 -183 -90 -195 -91 -17 -152 86 -126
213 20 94 81 135 153 102z"/>
<path d="M2580 619 c-72 -20 -91 -31 -85 -48 4 -9 9 -28 12 -44 8 -37 14 -39
63 -22 91 32 184 13 192 -40 3 -18 -5 -21 -70 -27 -131 -13 -209 -63 -232
-149 -29 -108 49 -208 163 -209 42 0 101 22 130 47 16 15 19 15 27 3 6 -8 10
-21 10 -27 0 -9 21 -13 70 -13 l70 0 0 159 c0 181 -10 250 -44 302 -35 53 -85
73 -186 76 -47 1 -101 -2 -120 -8z m190 -324 c0 -51 -28 -89 -74 -101 -28 -7
-73 16 -83 42 -19 49 41 104 115 104 l42 0 0 -45z"/>
<path d="M3350 355 l0 -265 80 0 80 0 0 265 0 265 -80 0 -80 0 0 -265z"/>
<path d="M3540 615 c0 -3 38 -61 84 -129 l85 -123 -73 -109 c-40 -60 -81 -121
-90 -136 l-18 -28 89 0 89 0 42 85 c23 47 45 85 49 85 5 0 28 -36 52 -81 24
-44 49 -83 55 -85 7 -3 49 -4 93 -2 l81 3 -84 130 c-46 72 -84 136 -84 143 0
6 36 64 80 128 44 63 80 117 80 120 0 3 -39 3 -86 2 l-86 -3 -40 -75 c-22 -41
-43 -76 -46 -77 -4 -2 -27 33 -52 77 l-45 80 -87 0 c-49 0 -88 -2 -88 -5z"/>
</g>
</svg>
